<svg width="512" height="408" xmlns="http://www.w3.org/2000/svg" viewBox="0 0 511.96 351.23"><defs><style>.cls-1{fill:#e95513;}.cls-2,.cls-3{fill:#fff000;}.cls-2{fill-rule:evenodd;}</style></defs><g id="레이어_2" data-name="레이어 2"><g id="레이어_1-2" data-name="레이어 1"><rect class="cls-1" width="511.96" height="351.23" rx="5.75"/><path class="cls-2" d="M197,56.81H99.91A6.13,6.13,0,0,0,93.83,63V218.86A6.13,6.13,0,0,0,99.91,225H197a6.14,6.14,0,0,0,6.09-6.18V63A6.14,6.14,0,0,0,197,56.81ZM183.78,185a6.2,6.2,0,0,1-6.15,6.25H119.32a6.21,6.21,0,0,1-6.15-6.25V92a6.21,6.21,0,0,1,6.15-6.25h58.31A6.2,6.2,0,0,1,183.78,92Z"/><path class="cls-2" d="M369,127.05h0c16.24,0,29.62,9.59,31.51,22h17.65v-4.39c0-21.34-22-38.64-49.16-38.64h0c-27.16,0-49.17,17.3-49.17,38.64v8.51c-11.86-3.62-20.28-12.67-20.28-23.27v-27c0-13.79,14.22-25,31.76-25h0c16.25,0,29.62,9.59,31.51,22h17.66v-4.4c0-21.34-22-38.64-49.17-38.64h0c-27.15,0-49.16,17.3-49.16,38.64v41.81c0,18.23,16.07,33.5,37.68,37.56v11.6c0,21.34,22,38.64,49.17,38.64h0c27.15,0,49.16-17.3,49.16-38.64V182H400.48c-1.89,12.37-15.27,22-31.51,22h0c-17.54,0-31.77-11.18-31.77-25V175.6c24.36-2.3,43.25-18.59,43.25-38.35v-4.4H362.79c-1.65,10.83-12.11,19.53-25.59,21.53V152C337.2,138.22,351.43,127.05,369,127.05Z"/><path class="cls-2" d="M268.61,129.27H216.85a3.67,3.67,0,0,0-3.67,3.66v34.75a3.67,3.67,0,0,0,3.67,3.67h51.76a3.67,3.67,0,0,0,3.67-3.67V132.93A3.66,3.66,0,0,0,268.61,129.27Zm-12.27,28.31a2.42,2.42,0,0,1-2.42,2.42H231.54a2.42,2.42,0,0,1-2.41-2.42V143a2.41,2.41,0,0,1,2.41-2.41h22.38a2.41,2.41,0,0,1,2.42,2.41Z"/><path class="cls-2" d="M242.73,56.8c-16.32,0-29.55,9.75-29.55,21.76s13.23,21.77,29.55,21.77,29.55-9.75,29.55-21.77S259.05,56.8,242.73,56.8Zm3.51,31.93c-7.63,1.42-15.38-2-17.31-7.59s2.68-11.32,10.3-12.74,15.37,2,17.31,7.59S253.86,87.31,246.24,88.73Z"/><path class="cls-3" d="M267.44,198.82H228.57V183.75a5,5,0,0,0-5-5H218a5,5,0,0,0-5,5V220a5,5,0,0,0,5,5h5.54a5,5,0,0,0,5-5v-4.74h38.87a4.34,4.34,0,0,0,4.34-4.34v-7.78A4.33,4.33,0,0,0,267.44,198.82Z"/><rect class="cls-3" x="235.62" y="85.25" width="14.22" height="59.1" rx="2.52" transform="translate(127.94 357.53) rotate(-90)"/><path class="cls-3" d="M114.51,260.62a1.41,1.41,0,0,1-.29,1,1.37,1.37,0,0,1-1,.28H96.47a1.28,1.28,0,0,1-1-.28,1.53,1.53,0,0,1-.25-1V242.94h5.11v5.51h9.18v-5.51h5Zm-13.7,11.56h19.76V269.1h-21V265h25.18a1.31,1.31,0,0,1,1,.3,1.42,1.42,0,0,1,.3,1v8.25a1.08,1.08,0,0,1-1.27,1.31H105v3.31H126.9v4.1H100.81a1.35,1.35,0,0,1-1-.28,1.5,1.5,0,0,1-.27-1v-8.48a1.53,1.53,0,0,1,.27-1A1.3,1.3,0,0,1,100.81,272.18Zm8.73-14.55v-4.94h-9.18v4.94Zm21.66-3.77H126v9.55h-5.15V241.82H126v7.56h5.16Z"/><path class="cls-3" d="M136.21,260.85a1.28,1.28,0,0,1-1-.28,1.63,1.63,0,0,1-.25-1V244.81a1.48,1.48,0,0,1,.27-1,1.29,1.29,0,0,1,1-.31h18v4.43H140.06v8.44H146c.81,0,1.8,0,3-.11s2.36-.18,3.59-.31,2.37-.27,3.49-.44,2-.33,2.8-.49v4.29l-2.42.44c-1,.18-2.06.35-3.32.54s-2.69.29-4.25.4-3.29.16-5.16.16Zm4,11.24H160v-3.36H139v-4.1h25.18a1.34,1.34,0,0,1,1,.3,1.44,1.44,0,0,1,.29,1v8.54a1.41,1.41,0,0,1-.29,1,1.38,1.38,0,0,1-1,.28H144.44v3.41h21.88v4.1H140.24a1.37,1.37,0,0,1-1-.28,1.5,1.5,0,0,1-.27-1v-8.58a1.5,1.5,0,0,1,.27-1A1.33,1.33,0,0,1,140.24,272.09Zm25.18-30.27V249h5.2v4.48h-5.2V263h-5.11V241.82Z"/><path class="cls-3" d="M187.35,242.71v4.34a11.46,11.46,0,0,0,.84,4.38,13.44,13.44,0,0,0,2.19,3.68,15.77,15.77,0,0,0,3.16,2.9,15.41,15.41,0,0,0,3.66,1.86l-3.21,4a25.37,25.37,0,0,1-2.66-1.53,30.39,30.39,0,0,1-2.67-2,21.33,21.33,0,0,1-2.33-2.22,12.53,12.53,0,0,1-1.74-2.45,9.1,9.1,0,0,1-1.38,2.59,17.39,17.39,0,0,1-2.28,2.54,25,25,0,0,1-2.71,2.33,20.59,20.59,0,0,1-2.81,1.78l-4-3.55a23.53,23.53,0,0,0,4-2.38,18,18,0,0,0,3.34-3.17,14.53,14.53,0,0,0,2.31-3.94,12.75,12.75,0,0,0,.86-4.73v-4.43Zm-6.83,25h24.6a1.33,1.33,0,0,1,1,.3,1.47,1.47,0,0,1,.29,1v12.73a1.41,1.41,0,0,1-.29,1,1.37,1.37,0,0,1-1,.28h-24.6a1.35,1.35,0,0,1-1-.28,1.47,1.47,0,0,1-.27-1V269.06a1.53,1.53,0,0,1,.27-1A1.3,1.3,0,0,1,180.52,267.75Zm20.8,11.05v-6.71h-17v6.71Zm5.06-37V266h-5.06V241.82Z"/><path class="cls-3" d="M232.15,243.83a1.34,1.34,0,0,1,1,.3,1.45,1.45,0,0,1,.29,1v14.4a1.44,1.44,0,0,1-.29,1,1.38,1.38,0,0,1-1,.28H219.72v8.49l6.19,0c1,0,2.09-.05,3.28-.14s2.38-.2,3.55-.33,2.28-.25,3.32-.39,1.93-.29,2.65-.45v4.48c-.69.13-1.58.26-2.65.4s-2.23.27-3.5.39-2.54.24-3.91.35-2.69.17-4,.17c-.36,0-1,0-2,0s-1.92,0-2.92,0h-4a1.35,1.35,0,0,1-1-.28,1.45,1.45,0,0,1-.27-1V257.77a1.5,1.5,0,0,1,.27-1,1.3,1.3,0,0,1,1-.3H228.4v-8.16H214.57v-4.48Zm8.1,39.68V241.82h5.15v41.69Z"/><path class="cls-3" d="M249.51,261.78a21,21,0,0,0,7.6-6.06,13.64,13.64,0,0,0,2.85-8.35v-4.66h5.38v4.57a10.44,10.44,0,0,0,.77,4.24,14.27,14.27,0,0,0,2.17,3.69,16,16,0,0,0,3.14,2.89,16.47,16.47,0,0,0,3.77,2l-3.2,4a24.06,24.06,0,0,1-2.9-1.68,28.45,28.45,0,0,1-2.67-2.05,19.49,19.49,0,0,1-2.23-2.22,11.39,11.39,0,0,1-1.52-2.21,10,10,0,0,1-1.33,2.38,26.43,26.43,0,0,1-2.15,2.51,27.62,27.62,0,0,1-2.71,2.36,24.51,24.51,0,0,1-3,2Zm21.07,5a25.56,25.56,0,0,1,5.7.6,16.73,16.73,0,0,1,4.57,1.73,8.9,8.9,0,0,1,3,2.75,6.61,6.61,0,0,1,1.09,3.73,6.71,6.71,0,0,1-1.09,3.78,9.11,9.11,0,0,1-3,2.75,16.08,16.08,0,0,1-4.57,1.68,27.73,27.73,0,0,1-5.74.56,27.4,27.4,0,0,1-5.72-.56,15.5,15.5,0,0,1-4.5-1.68,8.84,8.84,0,0,1-3-2.75,6.77,6.77,0,0,1-1.06-3.78,6.49,6.49,0,0,1,1.08-3.68,9.13,9.13,0,0,1,3-2.8,16.77,16.77,0,0,1,4.54-1.73A25.06,25.06,0,0,1,270.58,266.73Zm0,4.15a14.35,14.35,0,0,0-6.37,1.21c-1.63.81-2.44,1.93-2.44,3.36s.82,2.61,2.46,3.47a13.79,13.79,0,0,0,6.35,1.28,13.47,13.47,0,0,0,6.4-1.3,3.9,3.9,0,0,0,2.42-3.45,3.71,3.71,0,0,0-2.4-3.39A14.57,14.57,0,0,0,270.58,270.88Zm7.83-4.06v-25h5.1v9.1h5.34v4.43h-5.34v11.47Z"/><path class="cls-3" d="M293.91,262.2a1.28,1.28,0,0,1-1-.28,1.59,1.59,0,0,1-.25-1V244.81a1.48,1.48,0,0,1,.27-1,1.29,1.29,0,0,1,1-.31h18v4.43H297.76v9.8l5.6-.05q1.27,0,3-.12c1.18-.08,2.38-.18,3.62-.3s2.47-.27,3.62-.44,2.12-.35,2.93-.54v4.29c-.66.16-1.55.33-2.66.51s-2.35.36-3.71.52-2.77.28-4.25.39-2.91.17-4.3.17c-.33,0-.91,0-1.74,0l-2.55,0h-3.44Zm3.94,4.39h24a1.34,1.34,0,0,1,1,.3,1.42,1.42,0,0,1,.29,1v13.9a1.41,1.41,0,0,1-.29,1,1.38,1.38,0,0,1-1,.28h-24a1.36,1.36,0,0,1-1-.28,1.47,1.47,0,0,1-.27-1v-13.9a1.48,1.48,0,0,1,.27-1A1.31,1.31,0,0,1,297.85,266.59Zm20.21,12.17V271H301.64v7.79Zm5.06-36.94v7.88h5.24v4.44h-5.24V265H318V241.82Z"/><path class="cls-3" d="M342.47,242.9V248a16.05,16.05,0,0,0,2.08,8.46,15.63,15.63,0,0,0,5.79,5.71L347,265.79a19.81,19.81,0,0,1-4.18-3.59,17.29,17.29,0,0,1-2.92-4.29,16.33,16.33,0,0,1-2.82,4.83,24.37,24.37,0,0,1-4.55,4.36l-4-3.36a19.12,19.12,0,0,0,6.33-6.32,17.76,17.76,0,0,0,2.3-9.39V242.9Zm-3.93,39.87a1.33,1.33,0,0,1-1-.28,1.64,1.64,0,0,1-.24-1V269.24h5.15v9.05h23.1v4.48ZM351.92,272v-17.4h-5.83V250h5.83v-7.5h5V272Zm7.78,1V241.78h5v31.15Z"/><path class="cls-3" d="M373.58,243.83h17.36v4.43H377.37v8h13.07v4.43H377.37v8.63l3.19,0c1.13,0,2.62-.07,4.45-.17,1.54-.06,3.18-.21,4.93-.44s3.33-.47,4.75-.72v4.47c-1.24.19-2.72.4-4.45.63s-3.46.4-5.18.49c-.9.07-1.76.11-2.58.14l-2.53.1h-6.42a1.3,1.3,0,0,1-1-.28,1.57,1.57,0,0,1-.25-1V245.14a1.51,1.51,0,0,1,.27-1A1.31,1.31,0,0,1,373.58,243.83Zm24.64,39.73v-23h-6.38v-4.71h6.38v-14h5.06v41.74Z"/></g></g></svg>